name rise30.6535peak61.5555fall82.9339.mot
datacolumns 19
datarows 21
range 14.00493900000000 14.03827200000000
endheader
time	ground_force1_vx	ground_force1_vy	ground_force1_vz	ground_force1_px	ground_force1_py	ground_force1_pz	ground_force2_vx	ground_force2_vy	ground_force2_vz	ground_force2_px	ground_force2_py	ground_force2_pz	ground_torque1_x	ground_torque1_y	ground_torque1_z	ground_torque2_x	ground_torque2_y	ground_torque2_z	
14.00493900000000	8.27612100000000	703.72863400000006	43.34765700000000	0.25267800000000	0.00000000000000	0.10688200000000	0.00000000000000	0.00000000000000	0.00000000000000	0.00000000000000	0.00000000000000	0.00000000000000	0.00000000000000	20.64580100000000	0.00000000000000	0.00000000000000	0.00000000000000	0.00000000000000	
14.00661400000000	7.83354200000000	704.37093300000004	43.34290100000000	0.25188800000000	0.00000000000000	0.10685300000000	0.00000000000000	0.00000000000000	0.00000000000000	0.00000000000000	0.00000000000000	0.00000000000000	0.00000000000000	20.68935400000000	0.00000000000000	0.00000000000000	0.00000000000000	0.00000000000000	
14.00827700000000	7.37961900000000	705.05818999999997	43.34297000000000	0.25107000000000	0.00000000000000	0.10682500000000	0.00000000000000	0.00000000000000	0.00000000000000	0.00000000000000	0.00000000000000	0.00000000000000	0.00000000000000	20.73637300000000	0.00000000000000	0.00000000000000	0.00000000000000	0.00000000000000	
14.00994100000000	6.91428900000000	705.79066499999999	43.34781200000000	0.25022500000000	0.00000000000000	0.10679800000000	0.00000000000000	0.00000000000000	0.00000000000000	0.00000000000000	0.00000000000000	0.00000000000000	0.00000000000000	20.78679600000000	0.00000000000000	0.00000000000000	0.00000000000000	0.00000000000000	
14.01161200000000	6.43753200000000	706.56861600000002	43.35737600000000	0.24935200000000	0.00000000000000	0.10677200000000	0.00000000000000	0.00000000000000	0.00000000000000	0.00000000000000	0.00000000000000	0.00000000000000	0.00000000000000	20.84056100000000	0.00000000000000	0.00000000000000	0.00000000000000	0.00000000000000	
14.01327300000000	5.94937100000000	707.39230099999997	43.37160800000000	0.24845200000000	0.00000000000000	0.10674800000000	0.00000000000000	0.00000000000000	0.00000000000000	0.00000000000000	0.00000000000000	0.00000000000000	0.00000000000000	20.89760800000000	0.00000000000000	0.00000000000000	0.00000000000000	0.00000000000000	
14.01494500000000	5.44987300000000	708.26196700000003	43.39045900000000	0.24752500000000	0.00000000000000	0.10672500000000	0.00000000000000	0.00000000000000	0.00000000000000	0.00000000000000	0.00000000000000	0.00000000000000	0.00000000000000	20.95787600000000	0.00000000000000	0.00000000000000	0.00000000000000	0.00000000000000	
14.01660700000000	4.93914900000000	709.17784600000005	43.41387600000000	0.24657000000000	0.00000000000000	0.10670400000000	0.00000000000000	0.00000000000000	0.00000000000000	0.00000000000000	0.00000000000000	0.00000000000000	0.00000000000000	21.02130200000000	0.00000000000000	0.00000000000000	0.00000000000000	0.00000000000000	
14.01828100000000	4.41735100000000	710.14014999999995	43.44180900000000	0.24558800000000	0.00000000000000	0.10668300000000	0.00000000000000	0.00000000000000	0.00000000000000	0.00000000000000	0.00000000000000	0.00000000000000	0.00000000000000	21.08782400000000	0.00000000000000	0.00000000000000	0.00000000000000	0.00000000000000	
14.01994500000000	3.88467800000000	711.14906099999996	43.47420500000000	0.24458000000000	0.00000000000000	0.10666400000000	0.00000000000000	0.00000000000000	0.00000000000000	0.00000000000000	0.00000000000000	0.00000000000000	0.00000000000000	21.15737800000000	0.00000000000000	0.00000000000000	0.00000000000000	0.00000000000000	
14.02160800000000	3.34136700000000	712.20472900000004	43.51101300000000	0.24354700000000	0.00000000000000	0.10664600000000	0.00000000000000	0.00000000000000	0.00000000000000	0.00000000000000	0.00000000000000	0.00000000000000	0.00000000000000	21.22990200000000	0.00000000000000	0.00000000000000	0.00000000000000	0.00000000000000	
14.02327800000000	2.78770100000000	713.30726200000004	43.55218100000000	0.24248900000000	0.00000000000000	0.10662900000000	0.00000000000000	0.00000000000000	0.00000000000000	0.00000000000000	0.00000000000000	0.00000000000000	0.00000000000000	21.30532700000000	0.00000000000000	0.00000000000000	0.00000000000000	0.00000000000000	
14.02494300000000	2.22399900000000	714.45672300000001	43.59765500000000	0.24140800000000	0.00000000000000	0.10661300000000	0.00000000000000	0.00000000000000	0.00000000000000	0.00000000000000	0.00000000000000	0.00000000000000	0.00000000000000	21.38358800000000	0.00000000000000	0.00000000000000	0.00000000000000	0.00000000000000	
14.02661000000000	1.65062500000000	715.65311899999995	43.64738300000000	0.24030600000000	0.00000000000000	0.10659800000000	0.00000000000000	0.00000000000000	0.00000000000000	0.00000000000000	0.00000000000000	0.00000000000000	0.00000000000000	21.46461500000000	0.00000000000000	0.00000000000000	0.00000000000000	0.00000000000000	
14.02827900000000	1.06797900000000	716.89639999999997	43.70130900000000	0.23918200000000	0.00000000000000	0.10658400000000	0.00000000000000	0.00000000000000	0.00000000000000	0.00000000000000	0.00000000000000	0.00000000000000	0.00000000000000	21.54833700000000	0.00000000000000	0.00000000000000	0.00000000000000	0.00000000000000	
14.02994300000000	0.47649700000000	718.18645000000004	43.75937700000000	0.23804000000000	0.00000000000000	0.10657100000000	0.00000000000000	0.00000000000000	0.00000000000000	0.00000000000000	0.00000000000000	0.00000000000000	0.00000000000000	21.63467800000000	0.00000000000000	0.00000000000000	0.00000000000000	0.00000000000000	
14.03160600000000	-0.12334500000000	719.52308300000004	43.82153300000000	0.23688000000000	0.00000000000000	0.10655800000000	0.00000000000000	0.00000000000000	0.00000000000000	0.00000000000000	0.00000000000000	0.00000000000000	0.00000000000000	21.72356200000000	0.00000000000000	0.00000000000000	0.00000000000000	0.00000000000000	
14.03327500000000	-0.73104000000000	720.90603299999998	43.88771600000000	0.23570400000000	0.00000000000000	0.10654600000000	0.00000000000000	0.00000000000000	0.00000000000000	0.00000000000000	0.00000000000000	0.00000000000000	0.00000000000000	21.81490900000000	0.00000000000000	0.00000000000000	0.00000000000000	0.00000000000000	
14.03494500000000	-1.34604800000000	722.33495600000003	43.95786900000000	0.23451500000000	0.00000000000000	0.10653500000000	0.00000000000000	0.00000000000000	0.00000000000000	0.00000000000000	0.00000000000000	0.00000000000000	0.00000000000000	21.90863500000000	0.00000000000000	0.00000000000000	0.00000000000000	0.00000000000000	
14.03660800000000	-1.96779700000000	723.80941800000005	44.03193000000000	0.23331400000000	0.00000000000000	0.10652400000000	0.00000000000000	0.00000000000000	0.00000000000000	0.00000000000000	0.00000000000000	0.00000000000000	0.00000000000000	22.00465200000000	0.00000000000000	0.00000000000000	0.00000000000000	0.00000000000000	
14.03827200000000	-2.59568800000000	725.32889200000000	44.10983800000000	0.23210300000000	0.00000000000000	0.10651400000000	0.00000000000000	0.00000000000000	0.00000000000000	0.00000000000000	0.00000000000000	0.00000000000000	0.00000000000000	22.10286800000000	0.00000000000000	0.00000000000000	0.00000000000000	0.00000000000000	
